<?xml version="1.0" encoding="utf-8"?>
<!-- Generator: Adobe Illustrator 18.1.1, SVG Export Plug-In . SVG Version: 6.00 Build 0)  -->
<svg version="1.1" id="Layer_1" xmlns="http://www.w3.org/2000/svg" xmlns:xlink="http://www.w3.org/1999/xlink" x="0px" y="0px"
	 viewBox="0 0 60 60" enable-background="new 0 0 60 60" xml:space="preserve">
<g>
	<rect x="18.9" y="22.1" fill="#40B983" width="3.2" height="3.2"/>
	<rect x="28.4" y="22.1" fill="#40B983" width="3.2" height="3.2"/>
	<rect x="37.9" y="22.1" fill="#40B983" width="3.2" height="3.2"/>
	<rect x="47.3" y="22.1" fill="#40B983" width="3.2" height="3.2"/>
	<rect x="18.9" y="34.7" fill="#40B983" width="3.2" height="3.2"/>
	<rect x="28.4" y="34.7" fill="#40B983" width="3.2" height="3.2"/>
	<rect x="9.5" y="34.7" fill="#40B983" width="3.2" height="3.2"/>
	<rect x="18.9" y="47.4" fill="#40B983" width="3.2" height="3.2"/>
	<rect x="28.4" y="47.4" fill="#40B983" width="3.2" height="3.2"/>
	<rect x="37.9" y="47.4" fill="#40B983" width="3.2" height="3.2"/>
	<rect x="9.5" y="47.4" fill="#40B983" width="3.2" height="3.2"/>
	<rect x="47.3" y="34.7" fill="#40B983" width="3.2" height="3.2"/>
	<circle fill="#40B983" cx="39.5" cy="36.3" r="4.7"/>
	<path fill="#40B983" d="M56.8,0H3.1C1.4,0,0,1.4,0,3.2v53.7C0,58.6,1.4,60,3.1,60h53.7c1.7,0,3.2-1.4,3.2-3.2V3.2
		C60,1.4,58.6,0,56.8,0z M56.8,53.7c0,1.7-1.4,3.2-3.2,3.2H6.3c-1.7,0-3.2-1.4-3.2-3.2V18.9c0-1.7,1.4-3.2,3.2-3.2h47.4
		c1.7,0,3.2,1.4,3.2,3.2V53.7z"/>
</g>
</svg>
