<?xml version="1.0" encoding="utf-8"?>
<!-- Generator: Adobe Illustrator 18.1.1, SVG Export Plug-In . SVG Version: 6.00 Build 0)  -->
<svg version="1.1" id="Layer_1" xmlns="http://www.w3.org/2000/svg" xmlns:xlink="http://www.w3.org/1999/xlink" x="0px" y="0px"
	 viewBox="0 0 138 87" enable-background="new 0 0 138 87" xml:space="preserve">
<path fill="#FFFFFF" d="M111.4,85.7v0.1H110c-0.6,0-1.2,0.2-1.9,0.2c-0.9,0-1.8-0.1-2.7-0.2H32.3c-0.7,0.1-1.4,0.2-2.1,0.2
	C13.7,86,0.3,72.6,0.3,56.1c0-14.2,10-26.1,23.3-29.1C25,11.8,37.7-0.1,53.2-0.1c9.6,0,18.1,4.6,23.6,11.7c1.2-0.2,2.5-0.4,3.7-0.4
	c11.1,0,20.7,6.2,25.9,15.2c0.6,0,1.1-0.2,1.7-0.2c16.5,0,29.9,13.4,29.9,29.9C138,71.5,126.3,84,111.4,85.7z"/>
</svg>
