<?xml version="1.0" encoding="utf-8"?>
<!-- Generator: Adobe Illustrator 18.1.1, SVG Export Plug-In . SVG Version: 6.00 Build 0)  -->
<svg version="1.1" id="Layer_1" xmlns="http://www.w3.org/2000/svg" xmlns:xlink="http://www.w3.org/1999/xlink" x="0px" y="0px"
	 viewBox="0 0 138 87" enable-background="new 0 0 138 87" xml:space="preserve">
<path fill="#FFFFFF" d="M108.1,26.4c-0.6,0-1.1,0.1-1.7,0.2c-5.1-9-14.7-15.2-25.9-15.2c-1.3,0-2.5,0.2-3.7,0.4
	C71.3,4.6,62.9,0,53.2,0C37.7,0,25,11.9,23.6,27.1C10.3,30.1,0.3,42,0.3,56.3c0,16.5,13.4,29.9,29.9,29.9c0.7,0,1.4-0.1,2.1-0.2
	h73.1c0.9,0.1,1.8,0.2,2.7,0.2c0.6,0,1.2-0.1,1.9-0.2h1.4v-0.1c15-1.6,26.6-14.2,26.6-29.6C138,39.8,124.6,26.4,108.1,26.4z
	 M82.7,53c-3.6,4-13,14.2-15.5,16.9c-0.4,0.5-1,0.5-1.4,0c-2.5-2.8-12-13.1-15.5-17c-0.7-0.8-0.4-1.5,0.7-1.5c1.9,0,5.5,0,9.6,0
	c0-4.4,0-11.6,0-14.7c0-0.8,0.7-1.5,1.4-1.5c2.2,0,6.6,0,8.9,0c0.7,0,1.5,0.7,1.5,1.5c0,3.1,0,10.3,0,14.7c4.1,0,7.7,0,9.6,0
	C83,51.5,83.3,52.3,82.7,53z"/>
</svg>
