<?xml version="1.0" encoding="utf-8"?>
<!DOCTYPE svg PUBLIC "-//W3C//DTD SVG 1.1//EN" "http://www.w3.org/Graphics/SVG/1.1/DTD/svg11.dtd">
<svg version="1.1" xmlns="http://www.w3.org/2000/svg" xmlns:xlink="http://www.w3.org/1999/xlink"
	viewBox="0 0 32 32" enable-background="new 0 0 32 32" xml:space="preserve">
  <path fill="#0572CE" d="M15.91,13.03c2.16,0,4.09-1.88,4.09-4.06c0-2.19-1.93-3.96-4.09-3.96S12,6.78,12,8.97
    C12.01,11.15,13.76,13.03,15.91,13.03z M7.44,13.01c1.35,0,2.55-1.22,2.55-2.57c0-1.34-1.02-2.43-2.43-2.43
    C6.14,8.01,5,9.1,5,10.44S6.09,13.01,7.44,13.01z M21.971,14.97H18.51l-2.48,5l-2.56-5h-3.44c-0.55,0-0.99,0.45-0.99,1v8.02
    c0,0.55,0.45,1,0.99,1L21.971,25c0.549,0,0.989-0.45,0.989-1v-8.03C22.971,15.42,22.52,14.97,21.971,14.97z M4.63,14.01
    c-0.36,0-0.66,0.3-0.66,0.66v5.65c0,0.369,0.51,0.66,0.87,0.66h3.13l0.01-4.61L6.8,14.01H4.63z M27.391,13.98h-2.17l-1.181,2.36
    l0.01,4.61h3.13c0.36,0,0.87-0.29,0.87-0.66v-5.65C28.05,14.27,27.76,13.98,27.391,13.98z M24.59,12.98
    c1.35,0,2.45-1.22,2.45-2.57c0-1.34-1.149-2.43-2.569-2.43c-1.421,0-2.431,1.09-2.431,2.43C22.029,11.75,23.24,12.98,24.59,12.98z"/>
</svg>
