<?xml version="1.0" encoding="utf-8"?>
<!DOCTYPE svg PUBLIC "-//W3C//DTD SVG 1.1//EN" "http://www.w3.org/Graphics/SVG/1.1/DTD/svg11.dtd">
<svg version="1.1" xmlns="http://www.w3.org/2000/svg" xmlns:xlink="http://www.w3.org/1999/xlink" 
  viewBox="0 0 32 32" enable-background="new 0 0 32 32" xml:space="preserve">
  <path fill="#85bbe7" d="M16,28C9.373,28,4,22.627,4,16S9.373,4,16,4s12,5.373,12,12S22.627,28,16,28z M5.981,14.998v2.011h2.98
    v-2.011H5.981z M9.831,8.758L8.409,10.18l2.133,2.133l1.422-1.422L9.831,8.758z M12.599,20.646c1.074,1.445,3.13,1.738,4.592,0.653
    c1.461-1.085,4.433-7.268,4.433-7.268s-6.861,0.942-8.323,2.028C11.839,17.146,11.525,19.199,12.599,20.646z M17.006,6.991h-2.012
    V9.97h2.012V6.991z M22.169,8.758l-2.133,2.133l1.422,1.422l2.133-2.133L22.169,8.758z M23.039,14.998v2.011h2.98v-2.011H23.039z"/>
</svg>
