<?xml version="1.0" encoding="utf-8"?>
<!DOCTYPE svg PUBLIC "-//W3C//DTD SVG 1.1//EN" "http://www.w3.org/Graphics/SVG/1.1/DTD/svg11.dtd">
<svg version="1.1" xmlns="http://www.w3.org/2000/svg" xmlns:xlink="http://www.w3.org/1999/xlink"
	viewBox="-1.5 2.5 32 32" enable-background="new -1.5 2.5 32 32" xml:space="preserve">
  <path fill="#85bbe7" d="M25.449,23.52c-5.7-1.58-4.95-6.06-4.98-6c0,0,0.04-1.52,0-1c0.41-5.43-2.52-6.959-3.98-7h-0.279
    c0.17-0.3,0.279-0.63,0.279-1c0-1.1-0.889-2-1.989-2c-1.1,0-1.99,0.9-1.99,2c0,0.37,0.1,0.7,0.28,1h-0.28
    c-1.46,0.04-4.39,1.57-3.98,7c-0.04-0.52,0,1,0,1c-0.03-0.06,0.66,4.431-5.04,6.01c-0.02,0.011,0,2.801,0,2.801l0.02,0.189h11
    h10.96C25.449,26.52,25.469,23.529,25.449,23.52z M14.488,30.52c1.65,0,2.99-1.34,2.99-3h-5.979
    C11.499,29.18,12.839,30.52,14.488,30.52z"/>
</svg>
