<?xml version="1.0" encoding="utf-8"?>
<!DOCTYPE svg PUBLIC "-//W3C//DTD SVG 1.1//EN" "http://www.w3.org/Graphics/SVG/1.1/DTD/svg11.dtd">
<svg version="1.1" xmlns="http://www.w3.org/2000/svg" xmlns:xlink="http://www.w3.org/1999/xlink"
	viewBox="0 0 32 32" enable-background="new 0 0 32 32" xml:space="preserve">
  <path transform="scale(-1,1) translate(-32,0)" fill="#0572CE" d="M27.975,19.516c-0.004,1.648-1.49,1.469-1.49,1.469h-0.469c0,0,0.619-3.006-3.062-3
    c-2.166,0.005-2.8,1.146-2.97,2.02V16.92l0,0v-4.936h4.438c0.554,0,2.095,3.969,2.095,3.969l1.469,1.094
    C27.984,17.047,27.979,18.573,27.975,19.516z M24.016,12.984h-3v3.021l4.229,0.011L24.016,12.984z M18.973,16.92v4.064h-6.957
    c0,0,0.123-2.979-3.063-3c-3.466-0.023-2.995,3-2.995,3H5.021c-0.128,0-0.456,0-0.456,0s-0.005,0-0.035-0.018
    c-0.314-0.165-0.551,0.043-0.535-0.921c0.01-0.604,1-0.487,1-0.487v-2.574L5,16.969V7.984l12.904,0.012c0,0,0.064,0.015,0.097,0.015
    c0.248-0.001,0.97,0.246,0.972,0.982c0.002,1.181,0.004,1.971,0.004,1.971v5.956H18.973z M8.977,18.999
    c1.101,0,1.993,0.892,1.993,1.993c0,1.1-0.892,1.992-1.993,1.992c-1.1,0-1.993-0.894-1.993-1.992
    C6.984,19.891,7.877,18.999,8.977,18.999z M22.993,18.984c1.108,0,2.008,0.867,2.008,1.977s-0.899,2.008-2.008,2.008
    c-1.11,0-2.009-0.898-2.009-2.008S21.883,18.984,22.993,18.984z"/>
</svg>
